<svg xmlns="http://www.w3.org/2000/svg" width="16" height="16" viewBox="0 0 16 16">
    <defs>
        <filter id="9b6hn9awca" color-interpolation-filters="auto">
            <feColorMatrix in="SourceGraphic" values="0 0 0 0 0.811765 0 0 0 0 0.070588 0 0 0 0 0.098039 0 0 0 1.000000 0"/>
        </filter>
    </defs>
    <g fill="none" fill-rule="evenodd">
        <g>
            <g>
                <g fill="#000" fill-rule="nonzero" filter="url(#9b6hn9awca)" transform="translate(-742.000000, -16.000000) translate(627.000000, 16.000000) translate(115.000000, 0.000000)">
                    <path d="M9.531 8c0 .846-.685 1.531-1.531 1.531-.846 0-1.531-.685-1.531-1.531 0-.846.685-1.531 1.531-1.531.846 0 1.531.685 1.531 1.531z"/>
                    <path d="M11.581 5.29c-.074-.199-.191-.38-.344-.527-.148-.153-.328-.27-.528-.344-.162-.063-.405-.138-.853-.158-.484-.022-.63-.027-1.856-.027-1.227 0-1.372.005-1.856.027-.448.02-.691.095-.853.158-.2.074-.38.191-.528.344-.153.148-.27.328-.344.528-.063.162-.138.405-.158.853-.022.484-.027.63-.027 1.856 0 1.227.005 1.372.027 1.856.02.448.095.691.158.853.074.2.19.38.343.529.149.152.33.27.529.343.162.063.405.138.853.158.484.022.63.027 1.856.027 1.227 0 1.372-.005 1.856-.027.448-.02.691-.095.853-.158.4-.154.718-.471.872-.872.063-.162.138-.405.158-.853.022-.484.027-.63.027-1.856 0-1.227-.005-1.372-.027-1.856-.02-.448-.095-.691-.158-.853zM8 10.36c-1.303 0-2.359-1.056-2.359-2.359S6.697 5.641 8 5.641 10.359 6.697 10.359 8 9.303 10.359 8 10.359zm2.452-4.26c-.304 0-.551-.247-.551-.551 0-.305.247-.551.551-.551.305 0 .551.246.551.55 0 .305-.246.552-.55.552z"/>
                    <path d="M8 0C3.582 0 0 3.582 0 8s3.582 8 8 8 8-3.582 8-8-3.582-8-8-8zm4.566 9.894c-.022.489-.1.823-.213 1.115-.24.617-.727 1.105-1.344 1.344-.292.113-.626.19-1.115.213-.49.022-.646.028-1.894.028-1.248 0-1.404-.006-1.894-.028-.489-.022-.823-.1-1.115-.213-.307-.116-.584-.297-.814-.53-.233-.23-.414-.507-.53-.814-.113-.292-.19-.626-.213-1.115-.023-.49-.028-.646-.028-1.894 0-1.248.005-1.404.028-1.894.022-.489.1-.823.213-1.115.116-.307.297-.584.53-.814.23-.233.507-.414.814-.53.292-.113.626-.19 1.115-.213.49-.022.646-.028 1.894-.028 1.248 0 1.404.006 1.894.028.489.022.823.1 1.115.213.307.116.584.297.814.53.233.23.414.507.53.814.113.292.19.626.213 1.115.023.49.028.646.028 1.894 0 1.248-.005 1.404-.028 1.894z"/>
                </g>
            </g>
        </g>
    </g>
</svg>
