<svg xmlns="http://www.w3.org/2000/svg" width="16" height="16" viewBox="0 0 16 16">
    <defs>
        <filter id="10l31mibaa" color-interpolation-filters="auto">
            <feColorMatrix in="SourceGraphic" values="0 0 0 0 0.582286 0 0 0 0 0.019277 0 0 0 0 0.040827 0 0 0 1.000000 0"/>
        </filter>
    </defs>
    <g fill="none" fill-rule="evenodd">
        <g>
            <g>
                <g transform="translate(-1197.000000, -16.000000) translate(627.000000, 16.000000) translate(570.000000, 0.000000)">
                    <circle cx="8" cy="8" r="8" fill="#CF1219"/>
                    <g filter="url(#10l31mibaa)">
                        <g>
                            <path fill="#000" fill-rule="nonzero" d="M2.327 9.269l.17-.048c.162-.046.257-.215.212-.38L.773 1.882C.746 1.783.681 1.7.593 1.65.503 1.6.398 1.587.301 1.614L.28 1.62c-.204.057-.323.27-.266.474L1.95 9.055c.045.164.214.26.377.214zM9.235 4.345C8.62 4.04 8.054 3.65 7.548 3.187c-.042-.039-.059-.098-.042-.153.25-.945.436-1.906.556-2.876.019-.161-.068-.209-.16-.098C6.098 2.213 2.978-.334 1.12 1.623c.022.042.04.086.052.131L2.428 6.24c1.86-1.933 4.97.598 6.77-1.55.092-.11.11-.313.037-.345z" transform="translate(3.360000, 3.360000)"/>
                        </g>
                    </g>
                </g>
            </g>
        </g>
    </g>
</svg>
